<svg id="Layer_2" data-name="Layer 2" xmlns="http://www.w3.org/2000/svg" xmlns:xlink="http://www.w3.org/1999/xlink" viewBox="0 0 400 300" width="406" height="306" class="illustration styles_illustrationTablet__1DWOa"><defs><linearGradient id="linear-gradient" x1="140.11" y1="265.76" x2="162.08" y2="229.27" gradientUnits="userSpaceOnUse"><stop offset="0" stop-color="#fff" stop-opacity="0"></stop><stop offset="0.99" stop-color="#007f68"></stop></linearGradient><linearGradient id="linear-gradient-2" x1="22.71" y1="221.1" x2="60.41" y2="189.56" xlink:href="#linear-gradient"></linearGradient><linearGradient id="linear-gradient-3" x1="246.52" y1="236.99" x2="261.03" y2="223.31" xlink:href="#linear-gradient"></linearGradient></defs><title>PP_</title><path d="M192.34,288.42l-165.77-98c-5.28-3-9.8-7.83-4.66-11L188.28,83.55c2.5-1.55,6.29-2.56,8.82-1.09l174,101c5.28,3.06,6.22,11.63.94,14.69L214.19,288.26A22,22,0,0,1,192.34,288.42Z" fill="#13bb6c"></path><path d="M190.47,279.88l71.3-43.61-153-51L69.2,211C73.32,215.39,184.94,277.06,190.47,279.88Z" opacity="0.32" fill="url(#linear-gradient)"></path><ellipse cx="197.61" cy="187.92" rx="100.74" ry="62.72" fill="#68e1fd"></ellipse><ellipse cx="197.61" cy="187.92" rx="100.74" ry="62.72" opacity="0.2"></ellipse><ellipse cx="197.61" cy="181.12" rx="100.74" ry="62.72" fill="#68e1fd"></ellipse><ellipse cx="197.61" cy="179.69" rx="85.7" ry="53.35" fill="#fff"></ellipse><polyline points="258.72 172.83 285.73 187.05 286.54 193.72 257.95 177.59" fill="#e27623"></polyline><path d="M257.62,161.93,246.5,202.06l2,1.18a12.68,12.68,0,0,0,1.52-.94c.6-.46,14.44-42.17,14.44-42.17" fill="#e27623"></path><polyline points="283.29 154.11 290.88 177.81 290.23 225.21 288.52 226.33 286.18 224.86 284.42 177.78 277.57 154.11" fill="#e27623"></polyline><path d="M253.46,151.27s-.84,5.25,1,8.17,6.6-4.34,6.6-4.34" fill="#ffb469"></path><polyline points="278.64 122.62 277.57 141.82 282.6 144.42 283.53 123.85" fill="#ca6b00"></polyline><polyline points="310.24 136.76 313.62 162.7 317.03 200.87 314.84 202.17 312.66 200.8 307.79 163.3 304.52 136.76" fill="#e27623"></polyline><path d="M306.82,140c1.42.43,4.46-1.8,5.37-3.23,5-7.84,3.55-18.49-5.43-23.45-4-2.2-8.08-4.39-12-6.65-3.51-2-7.24-3.72-10.64-5.9a7.8,7.8,0,0,0-1.41-.77,4.84,4.84,0,0,0-5.11,1.74" fill="#ffb469"></path><path d="M307.19,139.66c2.4-.08,3.78-3.27,4.49-5.14,2-5.15,2.33-14.93-3.54-17.87a.7.7,0,0,1-.42-.56l-11.26-6.5-8.71-5c-1.52-.88-3-1.88-4.49-2.76s-3-1.91-4.69-.9c-1.84,1.11-2.09,3.19-2.38,5.13a31.11,31.11,0,0,0,.69,13.47c.92,2.92,3.22,4.91,5.79,6.4l8.09,4.68,15,8.65a3.19,3.19,0,0,0,.77.36A2.24,2.24,0,0,0,307.19,139.66Z" fill="#fcbd4c"></path><path d="M308.83,160.43l.46.26a11.26,11.26,0,0,1,3.35,2.53c2.27,2.85.08,6.11-2.18,8.11-6.1,5.42-15.34,9.86-23.61,7.85-7.2-1.74-13.91-5.11-20.23-8.91-5.17-3.11-11.64-6.86-13-13.28a9.28,9.28,0,0,1,2.46-8c13-15,31.24-.92,44.08,6.45Z" fill="#ffb469"></path><path d="M313.33,161c.11.1.68,4.26.27,5.5a15.5,15.5,0,0,1-3.72,5.33c-1.51,1.22-.6-7.27-.6-7.27" fill="#ffb469"></path><path d="M308.83,156.82l.46.26a11.26,11.26,0,0,1,3.35,2.53c2.27,2.85.08,6.11-2.18,8.11-6.1,5.42-15.34,9.86-23.61,7.85-7.2-1.74-13.91-5.11-20.23-8.91-5.17-3.11-11.64-6.86-13-13.28a9.28,9.28,0,0,1,2.46-8c13-15,31.24-.92,44.08,6.45Z" fill="#fcbd4c"></path><polygon points="197.61 179.69 164.81 156.24 161.74 158.28 161.74 150.68 170.88 151.99 168.57 154.11 200 177.56 197.61 179.69" fill="#196132"></polygon><path d="M200,177.67a8.19,8.19,0,0,1-2.64-.61l-5.93,31.79h-3.1l4.57,5.86,5.92-4.82-4.47-1Z" fill="#196132"></path><ellipse cx="197.61" cy="177.55" rx="8.16" ry="4.32" fill="#196132"></ellipse><ellipse cx="145.72" cy="209.49" rx="4.39" ry="2.25" fill="#196132"></ellipse><ellipse cx="152.54" cy="144.42" rx="4.39" ry="2.25" fill="#196132"></ellipse><ellipse cx="240.34" cy="144.42" rx="4.39" ry="2.25" fill="#196132"></ellipse><path d="M135.57,154.38a1,1,0,0,0,0,2A1,1,0,0,0,135.57,154.38Z" fill="#196132"></path><path d="M126.44,164.52a1,1,0,0,0,0,2A1,1,0,0,0,126.44,164.52Z" fill="#196132"></path><path d="M125.68,182a1,1,0,0,0,0,2A1,1,0,0,0,125.68,182Z" fill="#196132"></path><path d="M132,197.21a1,1,0,0,0,0,2A1,1,0,0,0,132,197.21Z" fill="#196132"></path><path d="M162.17,219.25a1,1,0,0,0,0,2A1,1,0,0,0,162.17,219.25Z" fill="#196132"></path><path d="M184.47,222.55a1,1,0,0,0,0,2A1,1,0,0,0,184.47,222.55Z" fill="#196132"></path><path d="M168,136.13a1,1,0,0,0,0,2A1,1,0,0,0,168,136.13Z" fill="#196132"></path><path d="M188.78,133.6a1,1,0,0,0,0,2A1,1,0,0,0,188.78,133.6Z" fill="#196132"></path><path d="M207.71,133h-.51a1,1,0,0,0,0,2h.51A1,1,0,0,0,207.71,133Z" fill="#196132"></path><path d="M224.32,137.06a1,1,0,0,0,0,2A1,1,0,0,0,224.32,137.06Z" fill="#196132"></path><path d="M204.9,221.88a1,1,0,0,0,0,2A1,1,0,0,0,204.9,221.88Z" fill="#196132"></path><path d="M225.09,219.07a1,1,0,0,0,0,2A1,1,0,0,0,225.09,219.07Z" fill="#196132"></path><path d="M53.28,202.76l31-17.58L66.14,177,38.26,192.51C42.38,196.94,47.76,199.93,53.28,202.76Z" opacity="0.32" fill="url(#linear-gradient-2)"></path><path d="M66.08,162.29s-3.65,24.92,12,25C93.19,187.37,89.3,162,89.3,162S78.35,152.45,66.08,162.29Z" fill="#68e1fd"></path><path d="M66.08,162.29s-3.65,24.92,12,25C93.19,187.37,89.3,162,89.3,162S78.35,152.45,66.08,162.29Z" opacity="0.15"></path><ellipse cx="77.65" cy="162.29" rx="11.6" ry="4.79" fill="#68e1fd"></ellipse><ellipse cx="77.65" cy="162.29" rx="11.6" ry="4.79" opacity="0.7"></ellipse><path d="M59.4,125.9s-8.08-1.94-5-8.67C54.42,117.23,60,118.33,59.4,125.9Z" fill="#938f05"></path><path d="M64.31,132.68s-1.12-5.75,3.37-8.07C67.68,124.62,71.29,130.63,64.31,132.68Z" fill="#938f05"></path><path d="M69.35,141.49s-1.34-6.88,4-9.65C73.38,131.84,77.7,139,69.35,141.49Z" fill="#938f05"></path><path d="M73.26,151.09s-1.34-6.88,4-9.65C77.29,141.44,81.61,148.64,73.26,151.09Z" fill="#938f05"></path><path d="M63.82,132.84s-2.85-5.11-7.78-4C56,128.85,57.17,135.77,63.82,132.84Z" fill="#938f05"></path><path d="M68.93,141.7s-3.65-6-9.49-4.41C59.45,137.3,61.12,145.53,68.93,141.7Z" fill="#938f05"></path><path d="M72.81,151.18s-4.28-5.54-9.91-3.33C62.9,147.84,65.46,155.84,72.81,151.18Z" fill="#938f05"></path><path d="M75.83,167.13h.11a5.59,5.59,0,0,1,1.13.09.56.56,0,0,0,0-.12A82.87,82.87,0,0,0,59.65,125c-.5-.63-1.39.26-.89.89a81.35,81.35,0,0,1,17.06,41.18Z" fill="#42352f"></path><path d="M95,136.87s6.93-1.66,4.27-7.43C99.23,129.44,94.46,130.38,95,136.87Z" fill="#938f05"></path><path d="M90.74,142.69s1-4.93-2.89-6.92C87.85,135.77,84.76,140.94,90.74,142.69Z" fill="#938f05"></path><path d="M86.42,150.25s1.15-5.9-3.46-8.28C83,142,79.26,148.15,86.42,150.25Z" fill="#938f05"></path><path d="M83.07,158.49s1.15-5.9-3.46-8.28C79.61,150.21,75.91,156.39,83.07,158.49Z" fill="#938f05"></path><path d="M91.16,142.83s2.45-4.39,6.67-3.42C97.83,139.4,96.87,145.35,91.16,142.83Z" fill="#938f05"></path><path d="M86.78,150.43s3.13-5.13,8.14-3.78C94.92,146.65,93.49,153.71,86.78,150.43Z" fill="#938f05"></path><path d="M83.46,158.56s3.68-4.75,8.5-2.86C92,155.7,89.76,162.56,83.46,158.56Z" fill="#938f05"></path><path d="M94.74,136.14A71.06,71.06,0,0,0,80.59,167c.37-.06.74-.11,1.12-.15a69.78,69.78,0,0,1,13.8-30C95.93,136.36,95.17,135.59,94.74,136.14Z" fill="#42352f"></path><path d="M244.73,250.64l45.5-25.43L251.7,213.44,223.81,229C227.93,233.4,239.2,247.82,244.73,250.64Z" opacity="0.32" fill="url(#linear-gradient-3)"></path><path d="M279.62,228.45l-4.93-2.27s-.48-4.27,1.18-5.18S279.62,228.45,279.62,228.45Z" fill="#196132"></path><path d="M267.48,216.54s-.44,10.53-1.14,11.62-9.94,6.21-10.67,8.07,10.43-.39,14.09-1.39,7-2.92,7.14-4.3-1.55-8.41-.19-8.29,2.9,6.2,2.9,6.2l3.19-2L275.1,202" fill="#196132"></path><path d="M257.22,218.48l-4.93-2.27s-.48-4.27,1.18-5.18S257.22,218.48,257.22,218.48Z" fill="#196132"></path><path d="M245.08,206.56s-.44,10.53-1.14,11.62-9.94,6.21-10.67,8.07,10.43-.39,14.09-1.39,7-2.92,7.14-4.3-1.55-8.41-.19-8.29,2.9,6.2,2.9,6.2l3.19-2L252.7,192" fill="#196132"></path><path d="M279.58,126.83c1.75,1.61,6.26,24.43,3.84,35.49s-29,16.25-29,16.25l6.9,27.88s-10.07,8-19.91,5c-3.55-1.07-12.5-41.13-9.51-46.81s38.32-25.88,38.32-25.88" fill="#c97aed"></path><path d="M300.85,134.72c1.75,1.61,7,14.37.68,30.34-4.14,10.53-27.83,18.43-27.83,18.43l8.85,30.85s-10.47,9.08-19.91,5-12.91-42.15-9.92-47.83,33.55-26.11,33.55-26.11" fill="#c97aed"></path><path d="M283.53,150.76l-1,.81a.94.94,0,0,0-.39.2l-.06,0c.28-.3.56-.6.84-.9a.91.91,0,0,0-.13-1.37l.16-.11a1,1,0,0,0-1.16-1.63l-.41.29a.89.89,0,0,0-1.4-.34l-1.73,1.4c0-.83-1.11-1.5-1.72-.66-2.86,3.87-8.46,3.64-12.06,6.58a1,1,0,0,0,.42,1.8c.38.06.74.09,1.1.11a13.6,13.6,0,0,0-2.41,2.41,1.4,1.4,0,0,0,1.49,2.26c-.07.11-.14.21-.2.33-.44.78.49,1.65,1.26,1.36a8.1,8.1,0,0,0,1.42-.74,1.07,1.07,0,0,0,1.58.79c1-.57,1.88-1.17,2.79-1.8-.21.3-.43.59-.63.89-.68,1.09,1.14,1.92,1.81.84,2.81-4.47,7.57-7.63,11.58-11C285.67,151.57,284.52,149.93,283.53,150.76Z" fill="#fdba45"></path><path d="M291.67,104.1s17.84,6.95,13.47,32.09c-3.08,17.71-20.52,20-20.52,20s-11.62-6.95-10.38-9.39l15.37-8.45-17.36-4.67L263,146.18l-10.14-7.54s12.74-21.37,18.26-30S291.67,104.1,291.67,104.1Z" fill="#ff9a22"></path><line x1="241.66" y1="134.52" x2="243.23" y2="132.92" fill="#fff7f0"></line><path d="M271.08,123.54s-.07,15.91.91,17.62,17.94,8.48,17.94,8.48L300,136.3Z" fill="#ff9a22"></path><path d="M279,96.13s-2.82,6.52-1.63,8.81,7.38.56,7.38.56" fill="#1b6333"></path><path d="M278.42,92.85s.11,13.1,5.52,14.4,8.11-5.42,8.11-5.42.89-8.87-.89-10.68S281.17,89.07,278.42,92.85Z" fill="#fdba45"></path><path d="M276.31,91.44s3.74,5,5.91,6.3,4.58.46,5.37,2.21-1.65,12.35.85,14.25,7.18-3.89,9.36-1.14,1.15,7.9,4.5,8.95,7.15-4.17,3.89-8.2-3.61-6-1.83-7.42c2.66-2.07-.3-9.42-3.5-10.74s-4.22-8.49-9.94-10.14S277.44,87.36,276.31,91.44Z" fill="#1b6333"></path><path d="M272.23,118.47q.23,11,.93,22c.05.83-1.24.86-1.3,0q-.69-11-.93-22A.65.65,0,0,1,272.23,118.47Z" fill="#f26250"></path><path d="M274.47,146.39a29.53,29.53,0,0,0,16.18-20.95c.16-.82,1.42-.5,1.26.32a30.73,30.73,0,0,1-16.76,21.73C274.4,147.86,273.72,146.76,274.47,146.39Z" fill="#f26250"></path><path d="M256,140.66a37.3,37.3,0,0,1-6.37,8c-2.73,2-5.72,3.16-7.92,6-.79,1,.62,2.43,1.41,1.41.24-.31.51-.58.77-.85a14.66,14.66,0,0,0-1.44,3.36c-.33,1.16,1.19,1.64,1.83.77l.26-.35-1.1,1.78c-.68,1.11,1,2,1.73,1l.4-.54a1,1,0,0,0,1.27-.08l4.73-4.57a4.16,4.16,0,0,0,.4,3.35,1,1,0,0,0,1.83-.24q2.5-6,5.56-11.66a14.65,14.65,0,0,1,2.45-2.71A59.42,59.42,0,0,0,256,140.66Z" fill="#fdba45"></path><path d="M257.59,166.58c1.76-1.35,3.56-2.64,5.38-3.9.53-.36,0-1.23-.5-.86-2.08,1.44-4.13,2.93-6.13,4.48a19.87,19.87,0,0,0-4.16,3.67c-1.06,1.47-1,3.16-.93,4.9.12,2.74.31,5.47.55,8.2a223.1,223.1,0,0,0,4.83,30.69c.14.63,1.11.36,1-.27A221.38,221.38,0,0,1,253.05,186q-.33-3.37-.56-6.75c-.15-2.25-.72-5-.19-7.19C252.89,169.62,255.78,168,257.59,166.58Z" fill="#196132"></path></svg>